REM DIRINDEX 1\3,1\5,1\6,1\2\7,1\2\8,1\4\9,1\4\10
REM DIRNAME folder01,folder02,folder03,folder04,folder05,folder06,folder07,folder08,folder09,folder10
TITLE ""
FILE "CD2Track03.mp3" MP3
  TRACK 01 AUDIO
    TITLE "9:cjc060_0787"
    INDEX 01 00:00:00
  TRACK 02 AUDIO
    TITLE "10:cjc060_0788"
    INDEX 01 00:01:28
  TRACK 03 AUDIO
    TITLE "9:cjc060_0789"
    INDEX 01 00:04:23
  TRACK 04 AUDIO
    TITLE "10:cjc060_0790"
    INDEX 01 00:05:54
  TRACK 05 AUDIO
    TITLE "9:cjc060_0791"
    INDEX 01 00:09:28
  TRACK 06 AUDIO
    TITLE "10:cjc060_0792"
    INDEX 01 00:10:49
  TRACK 07 AUDIO
    TITLE "9:cjc060_0793"
    INDEX 01 00:14:06
  TRACK 08 AUDIO
    TITLE "10:cjc060_0794"
    INDEX 01 00:15:25
  TRACK 09 AUDIO
    TITLE "9:cjc060_0795"
    INDEX 01 00:18:58
  TRACK 10 AUDIO
    TITLE "10:cjc060_0796"
    INDEX 01 00:19:73
  TRACK 11 AUDIO
    TITLE "9:cjc060_0797"
    INDEX 01 00:24:12
  TRACK 12 AUDIO
    TITLE "10:cjc060_0798"
    INDEX 01 00:25:41
  TRACK 13 AUDIO
    TITLE "9:cjc060_0799"
    INDEX 01 00:29:05
  TRACK 14 AUDIO
    TITLE "10:cjc060_0800"
    INDEX 01 00:30:20
  TRACK 15 AUDIO
    TITLE "9:cjc060_0801"
    INDEX 01 00:34:26
  TRACK 16 AUDIO
    TITLE "10:cjc060_0802"
    INDEX 01 00:35:59
  TRACK 17 AUDIO
    TITLE "9:cjc060_0803"
    INDEX 01 00:38:63
  TRACK 18 AUDIO
    TITLE "10:cjc060_0804"
    INDEX 01 00:39:72
  TRACK 19 AUDIO
    TITLE "9:cjc060_0805"
    INDEX 01 00:44:03
  TRACK 20 AUDIO
    TITLE "10:cjc060_0806"
    INDEX 01 00:45:30
  TRACK 21 AUDIO
    TITLE "9:cjc060_0807"
    INDEX 01 00:49:08
  TRACK 22 AUDIO
    TITLE "10:cjc060_0808"
    INDEX 01 00:50:25
  TRACK 23 AUDIO
    TITLE "9:cjc060_0809"
    INDEX 01 00:53:25
  TRACK 24 AUDIO
    TITLE "10:cjc060_0810"
    INDEX 01 00:54:32
  TRACK 25 AUDIO
    TITLE "9:cjc060_0811"
    INDEX 01 00:57:39
  TRACK 26 AUDIO
    TITLE "10:cjc060_0812"
    INDEX 01 00:58:52
  TRACK 27 AUDIO
    TITLE "9:cjc060_0813"
    INDEX 01 01:02:50
  TRACK 28 AUDIO
    TITLE "10:cjc060_0814"
    INDEX 01 01:04:25
  TRACK 29 AUDIO
    TITLE "9:cjc060_0815"
    INDEX 01 01:08:23
  TRACK 30 AUDIO
    TITLE "10:cjc060_0816"
    INDEX 01 01:09:36
  TRACK 31 AUDIO
    TITLE "9:cjc060_0817"
    INDEX 01 01:13:30
  TRACK 32 AUDIO
    TITLE "10:cjc060_0818"
    INDEX 01 01:14:41
  TRACK 33 AUDIO
    TITLE "9:cjc060_0819"
    INDEX 01 01:17:55
  TRACK 34 AUDIO
    TITLE "10:cjc060_0820"
    INDEX 01 01:18:72
  TRACK 35 AUDIO
    TITLE "9:cjc060_0821"
    INDEX 01 01:22:17
  TRACK 36 AUDIO
    TITLE "10:cjc060_0822"
    INDEX 01 01:23:30
  TRACK 37 AUDIO
    TITLE "9:cjc060_0823"
    INDEX 01 01:27:55
  TRACK 38 AUDIO
    TITLE "10:cjc060_0824"
    INDEX 01 01:28:74
  TRACK 39 AUDIO
    TITLE "9:cjc060_0825"
    INDEX 01 01:32:37
  TRACK 40 AUDIO
    TITLE "10:cjc060_0826"
    INDEX 01 01:33:62
  TRACK 41 AUDIO
    TITLE "9:cjc060_0827"
    INDEX 01 01:37:62
  TRACK 42 AUDIO
    TITLE "10:cjc060_0828"
    INDEX 01 01:39:15
  TRACK 43 AUDIO
    TITLE "9:cjc060_0829"
    INDEX 01 01:42:73
  TRACK 44 AUDIO
    TITLE "10:cjc060_0830"
    INDEX 01 01:44:13
  TRACK 45 AUDIO
    TITLE "9:cjc060_0831"
    INDEX 01 01:48:07
  TRACK 46 AUDIO
    TITLE "10:cjc060_0832"
    INDEX 01 01:49:22
  TRACK 47 AUDIO
    TITLE "9:cjc060_0833"
    INDEX 01 01:52:55
  TRACK 48 AUDIO
    TITLE "10:cjc060_0834"
    INDEX 01 01:54:07
  TRACK 49 AUDIO
    TITLE "9:cjc060_0835"
    INDEX 01 01:57:33
  TRACK 50 AUDIO
    TITLE "10:cjc060_0836"
    INDEX 01 01:58:56
  TRACK 51 AUDIO
    TITLE "10:cjc060_0837"
    INDEX 01 02:01:54
  TRACK 52 AUDIO
    TITLE "9:cjc060_0838"
    INDEX 01 02:05:27
  TRACK 53 AUDIO
    TITLE "10:cjc060_0839"
    INDEX 01 02:06:52
  TRACK 54 AUDIO
    TITLE "9:cjc060_0840"
    INDEX 01 02:10:08
  TRACK 55 AUDIO
    TITLE "10:cjc060_0841"
    INDEX 01 02:11:37
  TRACK 56 AUDIO
    TITLE "10:cjc060_0842"
    INDEX 01 02:14:22
  TRACK 57 AUDIO
    TITLE "9:cjc060_0843"
    INDEX 01 02:17:42
  TRACK 58 AUDIO
    TITLE "10:cjc060_0844"
    INDEX 01 02:18:70
  TRACK 59 AUDIO
    TITLE "9:cjc060_0845"
    INDEX 01 02:22:53
  TRACK 60 AUDIO
    TITLE "10:cjc060_0846"
    INDEX 01 02:23:72
  TRACK 61 AUDIO
    TITLE "9:cjc060_0847"
    INDEX 01 02:28:00
  TRACK 62 AUDIO
    TITLE "10:cjc060_0848"
    INDEX 01 02:29:23
  TRACK 63 AUDIO
    TITLE "9:cjc060_0849"
    INDEX 01 02:32:25
  TRACK 64 AUDIO
    TITLE "10:cjc060_0850"
    INDEX 01 02:33:45
  TRACK 65 AUDIO
    TITLE "9:cjc060_0851"
    INDEX 01 02:36:62
  TRACK 66 AUDIO
    TITLE "10:cjc060_0852"
    INDEX 01 02:38:14
  TRACK 67 AUDIO
    TITLE "10:cjc060_0853"
    INDEX 01 02:40:43
  TRACK 68 AUDIO
    TITLE "9:cjc060_0854"
    INDEX 01 02:43:10
  TRACK 69 AUDIO
    TITLE "10:cjc060_0855"
    INDEX 01 02:44:27
  TRACK 70 AUDIO
    TITLE "9:cjc060_0856"
    INDEX 01 02:47:17
  TRACK 71 AUDIO
    TITLE "10:cjc060_0857"
    INDEX 01 02:48:34
  TRACK 72 AUDIO
    TITLE "9:cjc060_0858"
    INDEX 01 02:52:03
  TRACK 73 AUDIO
    TITLE "10:cjc060_0859"
    INDEX 01 02:53:28
  TRACK 74 AUDIO
    TITLE "9:cjc060_0860"
    INDEX 01 02:56:51
  TRACK 75 AUDIO
    TITLE "10:cjc060_0861"
    INDEX 01 02:58:05
  TRACK 76 AUDIO
    TITLE "9:cjc060_0862"
    INDEX 01 03:02:09
  TRACK 77 AUDIO
    TITLE "10:cjc060_0863"
    INDEX 01 03:03:18
  TRACK 78 AUDIO
    TITLE "9:cjc060_0864"
    INDEX 01 03:06:48
  TRACK 79 AUDIO
    TITLE "10:cjc060_0865"
    INDEX 01 03:07:57
  TRACK 80 AUDIO
    TITLE "9:cjc060_0866"
    INDEX 01 03:11:20
  TRACK 81 AUDIO
    TITLE "10:cjc060_0867"
    INDEX 01 03:12:25
  TRACK 82 AUDIO
    TITLE "0:"
    INDEX 01 03:14:61
